<?xml version="1.0" standalone="no"?><!DOCTYPE svg PUBLIC "-//W3C//DTD SVG 1.1//EN" "http://www.w3.org/Graphics/SVG/1.1/DTD/svg11.dtd"><svg t="1545193662281" class="icon" style="" viewBox="0 0 1024 1024" version="1.1" xmlns="http://www.w3.org/2000/svg" p-id="13363" xmlns:xlink="http://www.w3.org/1999/xlink" width="64" height="64"><defs><style type="text/css"></style></defs><path d="M292.6592 974.7456h-54.6816A106.1888 106.1888 0 0 1 133.12 867.9424V156.0576A106.1888 106.1888 0 0 1 237.9776 49.2544h548.0448A106.1888 106.1888 0 0 1 890.88 156.0576v168.7552a30.72 30.72 0 0 1-61.44 0V156.0576a44.6464 44.6464 0 0 0-43.8272-45.3632H237.9776A44.6464 44.6464 0 0 0 194.56 156.0576v711.8848a44.6464 44.6464 0 0 0 43.8272 45.3632h54.6816a30.72 30.72 0 0 1 0 61.44z" fill="#8a8a8a" p-id="13364"></path><path d="M727.04 245.76H296.96a30.72 30.72 0 0 0 0 61.44h430.08a30.72 30.72 0 0 0 0-61.44zM583.68 409.6H296.96a30.72 30.72 0 0 0 0 61.44h286.72a30.72 30.72 0 0 0 0-61.44z" fill="#8a8a8a" p-id="13365"></path><path d="M515.3792 972.8a51.8144 51.8144 0 0 1-6.9632 0 44.6464 44.6464 0 0 1-35.0208-27.8528l-10.24-24.9856-26.7264-4.3008a44.8512 44.8512 0 0 1-34.816-28.3648 48.9472 48.9472 0 0 1 8.192-47.9232l77.6192-94.4128a30.72 30.72 0 1 1 47.5136 39.0144l-61.952 75.264 9.216 1.536a44.6464 44.6464 0 0 1 34.6112 27.8528l3.6864 9.3184 71.68-85.8112a30.72 30.72 0 0 1 47.2064 39.3216L552.96 954.5728A49.3568 49.3568 0 0 1 515.3792 972.8z m-9.3184-57.4464z" fill="#8a8a8a" p-id="13366"></path><path d="M778.24 972.8a49.7664 49.7664 0 0 1-38.2976-18.7392l-85.6064-103.424a30.72 30.72 0 1 1 47.2064-39.2192l70.5536 84.8896 2.2528-6.2464A43.8272 43.8272 0 0 1 808.96 862.0032l6.4512-0.9216-59.0848-74.752a30.72 30.72 0 0 1 48.2304-38.0928l74.4448 94.3104a48.4352 48.4352 0 0 1 7.9872 48.128 43.2128 43.2128 0 0 1-34.6112 27.2384l-24.064 3.6864-8.4992 22.8352a43.2128 43.2128 0 0 1-33.8944 27.9552A44.7488 44.7488 0 0 1 778.24 972.8z m9.0112-57.856z m44.032-34.304zM646.144 623.5136a51.2 51.2 0 1 0 51.2 51.2 51.2 51.2 0 0 0-51.2-51.2z" fill="#8a8a8a" p-id="13367"></path><path d="M647.0656 563.2a111.5136 111.5136 0 1 1 0 222.9248H645.12A111.5136 111.5136 0 0 1 645.12 563.2h1.8432m0-61.44H645.12a172.9536 172.9536 0 0 0-172.7488 172.9536A172.8512 172.8512 0 0 0 645.12 847.5648h1.8432a172.9536 172.9536 0 0 0 173.056-172.8512A172.9536 172.9536 0 0 0 647.0656 501.76z" fill="#8a8a8a" p-id="13368"></path></svg>