<?xml version="1.0" standalone="no"?><!DOCTYPE svg PUBLIC "-//W3C//DTD SVG 1.1//EN" "http://www.w3.org/Graphics/SVG/1.1/DTD/svg11.dtd"><svg t="1544889926376" class="icon" style="" viewBox="0 0 1024 1024" version="1.1" xmlns="http://www.w3.org/2000/svg" p-id="1064" xmlns:xlink="http://www.w3.org/1999/xlink" width="64" height="64"><defs><style type="text/css"></style></defs><path d="M917 63.4H171.9c-22.7 0-41.3 17.3-42.9 39.2h-0.1V319.7c0 70.1 57 127.1 127.1 127.1s127.1-57 127.1-127.1-57-127.1-127.1-127.1c-23 0-44.5 6.1-63.1 16.8v-81.9H896V608H448.2v-63.4c0-11.2-1.9-22-5.5-32h47.4v-0.3c47.2-2.6 91.1-22.1 124.7-55.7 36.1-36.1 56-84.2 56-135.3h-64c0 70.2-57.1 127.4-127.4 127.4h-319c-52.9 0-96 43.1-96 96v319c0 52.9 43.1 96 96 96h191.9c52.9 0 96-43.1 96-96V671.9h159.9v21.2c0 24.3 19.7 44 44 44h104c24.3 0 44-19.7 44-44v-21.2H917c23.7 0 43.1-18.9 43.1-42.2V105.6c-0.1-23.3-19.4-42.2-43.1-42.2zM256 256.5c34.8 0 63.1 28.3 63.1 63.1s-28.3 63.1-63.1 63.1-63.1-28.3-63.1-63.1 28.2-63.1 63.1-63.1z m128.2 607c0 17.6-14.4 32-32 32H160.4c-17.6 0-32-14.4-32-32v-319c0-17.6 14.4-32 32-32H352.2c17.6 0 32 14.4 32 32v319z" p-id="1065" fill="#337ab7"></path><path d="M864 766.6H575.4c-52.9 0-96 43.1-96 96v0.9c0 52.9 43.1 96 96 96H864c52.9 0 96-43.1 96-96v-0.9c0-52.9-43-96-96-96z m32 96.9c0 17.6-14.4 32-32 32H575.4c-17.6 0-32-14.4-32-32v-0.9c0-17.6 14.4-32 32-32H864c17.6 0 32 14.4 32 32v0.9z" p-id="1066" fill="#337ab7"></path></svg>