<?xml version="1.0" standalone="no"?><!DOCTYPE svg PUBLIC "-//W3C//DTD SVG 1.1//EN" "http://www.w3.org/Graphics/SVG/1.1/DTD/svg11.dtd"><svg t="1545193079857" class="icon" style="" viewBox="0 0 1024 1024" version="1.1" xmlns="http://www.w3.org/2000/svg" p-id="8917" xmlns:xlink="http://www.w3.org/1999/xlink" width="64" height="64"><defs><style type="text/css"></style></defs><path d="M674.132053 170.666667H150.356053A23.04 23.04 0 0 0 127.572053 194.133333c0 12.8 10.24 23.552 22.784 23.552h523.776a23.04 23.04 0 0 0 22.784-23.552A22.784 22.784 0 0 0 674.132053 170.666667z m22.784 175.189333c0-12.8-10.24-23.466667-22.784-23.466667H150.356053A23.04 23.04 0 0 0 127.572053 345.856c0 12.8 10.24 23.552 22.784 23.552h523.776a23.04 23.04 0 0 0 22.784-23.552zM150.356053 474.453333A23.04 23.04 0 0 0 127.572053 498.005333c0 12.8 10.24 23.466667 22.784 23.466667h336.213334a23.04 23.04 0 0 0 22.784-23.466667c0-12.8-10.24-23.552-22.784-23.552h-336.213334z m263.424 152.149334H150.356053A23.04 23.04 0 0 0 127.572053 650.069333c0 12.8 10.24 23.552 22.784 23.552h263.424a23.04 23.04 0 0 0 22.784-23.552c0-12.8-10.24-23.466667-22.784-23.466666z m513.536 218.88h-58.88L753.492053 697.173333c47.36-15.274667 81.322667-56.490667 81.322667-105.557333 0-61.781333-54.528-112.128-121.514667-112.128-66.901333 0-121.429333 50.346667-121.429333 112.128 0 48.64 33.962667 89.941333 81.322667 105.557333l-114.346667 148.48h-58.88c-29.525333 0-53.674667 22.186667-53.674667 49.408v79.530667c0 27.306667 24.149333 49.493333 53.589334 49.493333h427.349333c29.44 0 53.589333-22.186667 53.589333-49.493333v-79.530667c0.426667-27.221333-23.637333-49.493333-53.589333-49.493333zM638.377387 591.530667c0-38.314667 33.962667-69.632 75.52-69.632 41.472 0 75.434667 31.317333 75.434666 69.632 0 38.4-33.450667 69.290667-74.581333 69.717333h-1.365333c-41.472-0.426667-75.008-31.317333-75.008-69.717333z m68.352 136.106666l13.397333-0.853333 91.989333 118.698667H615.593387l91.136-117.845334z m228.693333 246.869334c0 3.754667-3.669333 6.997333-7.68 6.997333H500.47872c-4.010667 0-7.594667-3.242667-7.594667-6.997333v-79.530667c0-3.754667 3.584-6.997333 7.68-6.997333h427.264c4.010667 0 7.68 3.242667 7.68 6.997333v79.530667z" p-id="8918" fill="#8a8a8a"></path><path d="M94.20672 879.530667L95.401387 71.168c0-8.704 7.338667-16.213333 17.578666-16.213333L751.785387 54.528c3.669333 0 6.912 3.328 6.912 7.082667l-0.853334 389.973333c15.957333 7.936 25.002667 13.397333 52.394667 33.28V50.005333A49.664 49.664 0 0 0 761.172053 0H91.305387A49.664 49.664 0 0 0 42.23872 49.92v838.826667c0 27.477333 22.101333 49.92 49.066667 49.92h321.024l-1.194667-47.872c0-0.853333 0-1.28 0.341333-2.048L101.11872 888.32a7.253333 7.253333 0 0 1-6.912-7.082667v-1.706666z" p-id="8919" fill="#8a8a8a"></path></svg>