<?xml version="1.0" standalone="no"?><!DOCTYPE svg PUBLIC "-//W3C//DTD SVG 1.1//EN" "http://www.w3.org/Graphics/SVG/1.1/DTD/svg11.dtd"><svg t="1545192929601" class="icon" style="" viewBox="0 0 1024 1024" version="1.1" xmlns="http://www.w3.org/2000/svg" p-id="7210" xmlns:xlink="http://www.w3.org/1999/xlink" width="64" height="64"><defs><style type="text/css"></style></defs><path d="M851.8656 541.11232l-3.42528-2.08896v-4.00896c0-1.20832 0.03584-2.42176 0.08192-3.6096 0.0256-1.00864 0.06144-1.9968 0.06144-2.94912 0-72.42752-22.6048-141.32736-65.36704-199.25504-35.01056-47.62624-81.92512-85.27872-135.67488-108.8768l-3.77344-1.65376-0.4608-4.09088c-7.53664-67.00544-64.04096-117.53984-131.44576-117.53984-67.53792 0-124.04736 50.52416-131.44576 117.52448l-0.45568 4.10112-3.77344 1.65888c-53.62176 23.6032-100.54144 61.25568-135.68 108.88192-42.76224 58.0608-65.36704 126.96576-65.36704 199.25504 0 2.9696-0.00512 6.08256 0.13312 9.18528l0.1792 4.20352-3.584 2.2016c-38.9888 23.93088-63.21152 67.14368-63.21152 112.76288 0 72.91904 59.32032 132.24448 132.24448 132.24448 14.9504 0 29.61408-2.49344 43.5712-7.41888l3.92192-1.3824 3.13856 2.72384a336.1536 336.1536 0 0 0 85.20704 53.88288c42.56768 18.69312 87.98208 28.17024 134.98368 28.17024a335.80032 335.80032 0 0 0 136.3712-28.7232 333.52704 333.52704 0 0 0 86.13888-55.2448l3.10272-2.72896 3.9168 1.32096a131.0208 131.0208 0 0 0 41.856 6.74304c72.91392 0 132.23936-59.32544 132.23936-132.23936 0.128-45.70624-24.20224-89.01632-63.48288-113.0496zM511.7184 172.11904c31.51872 0 57.15456 25.64096 57.15456 57.15456 0 2.4064-0.2816 5.0176-0.70144 8.16128l-0.09216 0.93184a56.83712 56.83712 0 0 1-56.36608 48.06144 56.87296 56.87296 0 0 1-56.36608-48.05632l-0.09216-0.91136c-0.35328-2.54976-0.69632-5.45792-0.69632-8.18176 0.01024-31.51872 25.6512-57.15968 57.15968-57.15968zM274.15552 703.22176l-0.6656 0.512a56.55552 56.55552 0 0 1-32.59392 10.22976c-31.5904 0-57.2928-25.63584-57.2928-57.15456 0-25.30304 17.06496-47.89248 41.49248-54.91712l1.32096-0.2816a57.10848 57.10848 0 0 1 14.48448-1.95584c31.5136 0 57.15456 25.64096 57.15456 57.14944a57.12896 57.12896 0 0 1-23.90016 46.41792z m398.31552 23.28576l3.59936 5.5296-5.2224 4.03968c-16.03072 12.3648-33.90464 22.99392-53.13024 31.5904-33.29536 14.78144-68.90496 22.272-105.86112 22.272-57.64096 0-112.11776-18.27328-157.54752-52.85376l-5.2224-3.97312 3.5072-5.54496c13.53216-21.376 20.6848-45.89056 20.6848-70.90176 0-66.92864-50.06848-123.38176-116.46976-131.30752l-6.5536-0.78336 0.256-6.58944c2.00704-52.28544 19.48672-102.24128 50.54976-144.47616 23.93088-32.57856 53.9904-58.42944 89.33376-76.83072l5.86752-3.05664 3.50208 5.61664a130.74432 130.74432 0 0 0 25.82016 30.19776 132.18304 132.18304 0 0 0 86.272 32.08192 132.17792 132.17792 0 0 0 86.25664-32.06656 130.72384 130.72384 0 0 0 25.84064-30.21312l3.51232-5.632 5.87776 3.08736a259.4816 259.4816 0 0 1 89.31328 76.8256c30.54592 41.58976 47.9744 90.60352 50.41152 141.75232l0.31232 6.62016-6.57408 0.8192c-66.0992 8.17664-115.94752 64.62464-115.94752 131.31264 0 25.74848 7.4752 50.81088 21.61152 72.48384z m151.21408-32.0768a56.85248 56.85248 0 0 1-40.58112 16.87552 56.7296 56.7296 0 0 1-31.9488-9.74336 57.216 57.216 0 0 1-25.20576-47.40608c0-36.54144 34.52416-65.6384 72.63744-54.93248 24.53504 6.85056 41.67168 29.44512 41.67168 54.93248a56.3712 56.3712 0 0 1-16.57344 40.27392z" p-id="7211" fill="#8a8a8a"></path></svg>