<?xml version="1.0" standalone="no"?><!DOCTYPE svg PUBLIC "-//W3C//DTD SVG 1.1//EN" "http://www.w3.org/Graphics/SVG/1.1/DTD/svg11.dtd"><svg t="1545192214242" class="icon" style="" viewBox="0 0 1024 1024" version="1.1" xmlns="http://www.w3.org/2000/svg" p-id="2197" xmlns:xlink="http://www.w3.org/1999/xlink" width="64" height="64"><defs><style type="text/css"></style></defs><path d="M495.616 40.448a36.571429 36.571429 0 0 1 32.768 0l438.857143 219.428571a36.571429 36.571429 0 0 1 0 65.389715l-438.857143 219.428571a36.571429 36.571429 0 0 1-32.768 0l-438.857143-219.428571a36.571429 36.571429 0 0 1 0-65.389715l438.857143-219.428571zM154.916571 292.571429L512 471.113143 869.083429 292.571429 512 114.029714 154.916571 292.571429zM512 909.970286l422.473143-211.236572a36.571429 36.571429 0 0 1 32.768 65.389715l-438.857143 219.428571a36.571429 36.571429 0 0 1-32.768 0l-438.857143-219.428571a36.571429 36.571429 0 1 1 32.768-65.389715L512 909.897143z" p-id="2198"></path><path d="M512 690.541714l422.473143-211.236571a36.571429 36.571429 0 1 1 32.768 65.389714l-438.857143 219.428572a36.571429 36.571429 0 0 1-32.768 0l-438.857143-219.428572a36.571429 36.571429 0 0 1 32.768-65.389714L512 690.468571z" p-id="2199"></path></svg>