<?xml version="1.0" standalone="no"?><!DOCTYPE svg PUBLIC "-//W3C//DTD SVG 1.1//EN" "http://www.w3.org/Graphics/SVG/1.1/DTD/svg11.dtd"><svg t="1545192126311" class="icon" style="" viewBox="0 0 1024 1024" version="1.1" xmlns="http://www.w3.org/2000/svg" p-id="1842" xmlns:xlink="http://www.w3.org/1999/xlink" width="64" height="64"><defs><style type="text/css"></style></defs><path d="M882.688 734.208h-52.224c0-140.288-57.856-155.648-130.56-175.104-75.264-19.968-168.448-45.056-177.152-219.136h-22.016c-8.192 174.592-101.376 199.68-177.152 219.648-72.704 19.456-130.56 34.816-130.56 175.104H140.8c0-180.224 93.696-205.312 169.472-225.28 77.312-20.992 138.752-37.376 138.752-195.072v-26.112h125.44v26.112c0 158.208 61.44 174.08 138.752 195.072 75.264 18.944 169.472 44.032 169.472 224.768zM664.064 232.448H359.936V0h304.128v232.448zM412.16 179.712h199.68V52.224h-199.68v127.488zM319.488 1024H14.848v-232.448h304.128V1024z m-251.904-52.224h199.68v-127.488h-199.68v127.488zM1009.152 1024h-304.128v-232.448h304.128V1024z m-251.904-52.224h199.68v-127.488h-199.68v127.488z" p-id="1843"></path></svg>