<?xml version="1.0" standalone="no"?><!DOCTYPE svg PUBLIC "-//W3C//DTD SVG 1.1//EN" "http://www.w3.org/Graphics/SVG/1.1/DTD/svg11.dtd"><svg t="1545192359990" class="icon" style="" viewBox="0 0 1486 1024" version="1.1" xmlns="http://www.w3.org/2000/svg" p-id="3708" xmlns:xlink="http://www.w3.org/1999/xlink" width="92.875" height="64"><defs><style type="text/css"></style></defs><path d="M68.839584 855.311688h1348.324853V665.926742c-0.859376-103.841245-83.771239-187.648291-185.750502-187.648291H68.839584zM340.169595 406.538474a183.369315 183.369315 0 0 0-33.623079-53.012746 251.367427 251.367427 0 0 0-74.694081-55.805718 683.651368 683.651368 0 0 0-153.685043-58.580785h-9.381519v167.399249z m72.742583 0H1231.413935c140.597465 0 254.590087 116.158965 254.590086 259.388268v259.603112H68.839584v98.470146H0V0h68.82168v165.805822L93.45712 170.979981a750.432031 750.432031 0 0 1 169.726725 64.166728 319.974263 319.974263 0 0 1 94.638762 71.346096 248.64607 248.64607 0 0 1 53.96164 94.889414z m1004.216452 518.132004H1486.004021v98.470146h-68.839584z" fill="#8a8a8a" p-id="3709"></path></svg>