<?xml version="1.0" standalone="no"?><!DOCTYPE svg PUBLIC "-//W3C//DTD SVG 1.1//EN" "http://www.w3.org/Graphics/SVG/1.1/DTD/svg11.dtd"><svg t="1545193737994" class="icon" style="" viewBox="0 0 1024 1024" version="1.1" xmlns="http://www.w3.org/2000/svg" p-id="15462" xmlns:xlink="http://www.w3.org/1999/xlink" width="64" height="64"><defs><style type="text/css"></style></defs><path d="M808.726 585.576l-34.234 0c-2.208 0-4.359 0.228-6.464 0.589l0-0.589-31.594 0 0 155.596c-4.567 81.919-73.98 120.082-158.947 120.082l-281.671 0.018 0-275.696-31.594 0 0 0.589c-2.105-0.361-4.256-0.589-6.464-0.589l-34.234 0c-21.019 0-38.059 17.039-38.059 38.059l0 347.685 69.089 0 0 0.303 391.564-0.106c107.929-8.208 193.116-81.716 200.624-200.624l0-18.491 0.041 0 0-128.767c0.001-21.018-17.04-38.058-38.058-38.058zM944.124 419.46l-388.393-329.779c-0.17-0.128-0.34-0.255-0.51-0.382-10.702-7.017-24.227-10.966-38.13-11.902-0.229-0.06-0.466-0.106-0.715-0.119-1.73-0.083-3.465-0.105-5.198-0.096-1.733-0.01-3.468 0.012-5.198 0.096-0.25 0.012-0.486 0.058-0.715 0.119-13.905 0.936-27.429 4.886-38.131 11.903-0.17 0.127-0.339 0.254-0.509 0.382l-385.798 327.574c-0.345 0.293-0.541 0.707-0.541 1.142l0 158.642c0 1.285 1.629 2.057 2.674 1.22 0.006-0.005 0.013-0.01 0.019-0.016l427.273-346.542c0.275-0.223 0.589-0.394 0.925-0.514 0.336 0.12 0.65 0.291 0.925 0.514l427.273 346.542c0.761 0.618 1.958 1.166 3.178 1.506 1.054 0.295 2.112-0.462 2.112-1.488l0-157.66c0-0.435-0.196-0.849-0.541-1.142z" p-id="15463" fill="#8a8a8a"></path></svg>