<?xml version="1.0" standalone="no"?><!DOCTYPE svg PUBLIC "-//W3C//DTD SVG 1.1//EN" "http://www.w3.org/Graphics/SVG/1.1/DTD/svg11.dtd"><svg t="1545193025627" class="icon" style="" viewBox="0 0 1024 1024" version="1.1" xmlns="http://www.w3.org/2000/svg" p-id="8129" xmlns:xlink="http://www.w3.org/1999/xlink" width="64" height="64"><defs><style type="text/css"></style></defs><path d="M160 377.6z" fill="#8a8a8a" p-id="8130"></path><path d="M780.8 454.4H371.2c-12.8 0-19.2-12.8-19.2-25.6s12.8-25.6 19.2-25.6h409.6c12.8 0 19.2 12.8 19.2 25.6 6.4 12.8-6.4 25.6-19.2 25.6zM780.8 659.2H371.2c-12.8 0-19.2-12.8-19.2-25.6s12.8-25.6 19.2-25.6h409.6c12.8 0 19.2 12.8 19.2 25.6 6.4 12.8-6.4 25.6-19.2 25.6z" fill="#8a8a8a" p-id="8131"></path><path d="M966.4 204.8h-211.2V108.8c0-25.6-19.2-44.8-44.8-44.8H51.2c-25.6 0-44.8 19.2-44.8 44.8v473.6c0 25.6 19.2 44.8 44.8 44.8h83.2v166.4c0 25.6 19.2 44.8 44.8 44.8h236.8l140.8 102.4 19.2 19.2c6.4 0 12.8 0 12.8-6.4l121.6-102.4h256c25.6 0 44.8-19.2 44.8-44.8V249.6c6.4-25.6-19.2-44.8-44.8-44.8z m-825.6 44.8v332.8H57.6V108.8h665.6v96H185.6c-25.6 0-44.8 19.2-44.8 44.8z m832 550.4H704c-6.4 0-12.8 0-12.8 6.4L576 908.8l-134.4-102.4c-6.4 0-6.4-6.4-12.8-6.4H185.6V249.6h780.8v550.4z" fill="#8a8a8a" p-id="8132"></path></svg>