<?xml version="1.0" standalone="no"?><!DOCTYPE svg PUBLIC "-//W3C//DTD SVG 1.1//EN" "http://www.w3.org/Graphics/SVG/1.1/DTD/svg11.dtd"><svg t="1545186525054" class="icon" style="" viewBox="0 0 1024 1024" version="1.1" xmlns="http://www.w3.org/2000/svg" p-id="2051" xmlns:xlink="http://www.w3.org/1999/xlink" width="16" height="16"><defs><style type="text/css"></style></defs><path d="M933.12 813.44a503.04 503.04 0 0 0-140.8-67.84c-44.8-14.08-89.6-28.16-131.2-44.8a58.88 58.88 0 0 1-32-92.8 88.96 88.96 0 0 1 28.8-32 180.48 180.48 0 0 0 67.2-92.8 90.24 90.24 0 0 1 42.88-53.12 87.04 87.04 0 0 0 41.6-92.8 26.24 26.24 0 0 0-14.72-23.68 35.2 35.2 0 0 0-17.92-10.24 15.36 15.36 0 0 1-8.96-5.12l-3.2-3.84a8.32 8.32 0 0 1 0-7.68l-9.6-50.56A222.72 222.72 0 0 0 570.88 70.4H556.8a117.76 117.76 0 0 0-21.12 0 128 128 0 0 0-15.36 0h-16.64a128 128 0 0 0-15.36 0 117.76 117.76 0 0 0-21.12 0h-14.08a222.72 222.72 0 0 0-182.4 165.76l-9.6 50.56a8.32 8.32 0 0 1 0 7.68L256 298.24a15.36 15.36 0 0 1-8.96 5.12 35.2 35.2 0 0 0-17.92 10.24 26.24 26.24 0 0 0-14.72 23.68A87.04 87.04 0 0 0 256 430.08a90.24 90.24 0 0 1 41.6 53.76A180.48 180.48 0 0 0 366.08 576a88.96 88.96 0 0 1 28.8 31.36 58.88 58.88 0 0 1-32 96.64c-41.6 16.64-86.4 30.72-128 44.8a503.04 503.04 0 0 0-140.8 67.84 79.36 79.36 0 0 0-32 98.56 103.04 103.04 0 0 0 89.6 44.8h720.64a103.04 103.04 0 0 0 92.8-48 79.36 79.36 0 0 0-32-98.56z" fill="#8a8a8a" p-id="2052"></path></svg>