<?xml version="1.0" standalone="no"?><!DOCTYPE svg PUBLIC "-//W3C//DTD SVG 1.1//EN" "http://www.w3.org/Graphics/SVG/1.1/DTD/svg11.dtd"><svg t="1545193914032" class="icon" style="" viewBox="0 0 1024 1024" version="1.1" xmlns="http://www.w3.org/2000/svg" p-id="16525" xmlns:xlink="http://www.w3.org/1999/xlink" width="64" height="64"><defs><style type="text/css"></style></defs><path d="M610.41812 332.199639l-68.861896-123.971938c-16.317498-29.350972-42.794949-29.248346-59.009822 0L413.58188 332.199639l-141.110443 26.887954c-32.532371 6.157547-40.742433 30.582481-17.959511 54.699539l98.212869 104.062537-17.651634 140.494689c-4.207657 33.250752 16.52275 48.952495 46.797354 34.892764l130.129485-60.549209 130.129485 60.549209c29.966727 13.957106 50.902385-1.744638 46.797354-34.892764L671.17258 517.952295l98.212868-104.062538c22.680297-24.014432 14.880738-48.439367-17.959511-54.699539l-141.007817-26.990579zM34.482261 747.628783V81.279615C34.482261 36.432151 76.353578 0 128.076969 0H895.923031c51.723391 0 93.594708 36.432151 93.594708 81.279615v666.349168c0 228.855482-477.517739 276.268591-477.517739 276.268591S34.482261 976.586891 34.482261 747.628783z" p-id="16526"></path></svg>