<?xml version="1.0" standalone="no"?><!DOCTYPE svg PUBLIC "-//W3C//DTD SVG 1.1//EN" "http://www.w3.org/Graphics/SVG/1.1/DTD/svg11.dtd"><svg t="1545193621809" class="icon" style="" viewBox="0 0 1024 1024" version="1.1" xmlns="http://www.w3.org/2000/svg" p-id="12381" xmlns:xlink="http://www.w3.org/1999/xlink" width="64" height="64"><defs><style type="text/css"></style></defs><path d="M825.6 1024 198.4 1024C89.6 1024 0 934.4 0 825.6L0 198.4C0 89.6 89.6 0 198.4 0L828.8 0C934.4 0 1024 89.6 1024 198.4L1024 828.8C1024 934.4 934.4 1024 825.6 1024L825.6 1024ZM198.4 54.4C118.4 54.4 54.4 118.4 54.4 198.4L54.4 828.8C54.4 908.8 118.4 972.8 198.4 972.8L828.8 972.8C908.8 972.8 972.8 908.8 972.8 828.8L972.8 198.4C972.8 118.4 908.8 54.4 828.8 54.4L198.4 54.4 198.4 54.4ZM259.2 505.43158 470.4 624C483.2 630.4 496 633.6 512 633.6 528 633.6 540.8 630.4 550.4 624L758.4 506.194691 758.4 758.4C758.4 793.6 662.4 844.8 508.8 844.8 355.2 844.8 259.2 793.6 259.2 758.4L259.2 755.2 259.2 505.43158ZM215.926976 481.137953 105.6 419.2C89.6 409.6 80 396.8 80 380.8 80 364.8 89.6 352 105.6 342.4L467.2 137.6C489.6 124.8 528 124.8 550.4 137.6L912 342.4C928 352 937.6 364.8 937.6 380.8 937.6 396.8 928 409.6 912 419.2L801.84087 481.591012C802.723356 484.054589 803.2 486.747853 803.2 489.6L803.2 761.6C803.2 761.6 803.2 761.6 803.2 764.8 806.4 848 656 892.8 512 892.8 371.2 892.8 220.8 848 214.4 764.8L214.4 761.6 214.4 489.6C214.4 486.571996 214.937234 483.723072 215.926976 481.137953ZM137.6 380.8 492.8 579.2C502.4 585.6 521.6 585.6 531.2 579.2L886.4 380.8 531.2 182.4C521.6 176 502.4 176 492.8 182.4L137.6 380.8ZM912 800C899.2 800 889.6 790.4 889.6 777.6L889.6 496C889.6 483.2 899.2 473.6 912 473.6 924.8 473.6 934.4 483.2 934.4 496L934.4 777.6C937.6 790.4 924.8 800 912 800Z" p-id="12382" fill="#8a8a8a"></path></svg>