<?xml version="1.0" standalone="no"?><!DOCTYPE svg PUBLIC "-//W3C//DTD SVG 1.1//EN" "http://www.w3.org/Graphics/SVG/1.1/DTD/svg11.dtd"><svg t="1545192641692" class="icon" style="" viewBox="0 0 1024 1024" version="1.1" xmlns="http://www.w3.org/2000/svg" p-id="6197" xmlns:xlink="http://www.w3.org/1999/xlink" width="64" height="64"><defs><style type="text/css"></style></defs><path d="M409.28 954.256H109.776c-27.232 0-40.848-20.416-40.848-47.648V191.856a122.032 122.032 0 0 1 122.528-122.528h530.96a122.032 122.032 0 0 1 122.528 122.528v204.208c-6.8 27.232-27.232 47.648-54.464 47.648s-40.848-20.416-40.848-47.648V191.856c0-20.416-13.616-34.032-34.032-34.032H184.64c-20.416 0-34.032 13.616-34.032 34.032V865.76H409.28c27.232 0 40.848 20.416 40.848 47.648 0 27.232-20.432 40.848-40.848 40.848z" p-id="6198"></path><path d="M538.624 954.256c-13.616 0-20.416-6.8-34.032-13.616-13.616-13.616-13.616-27.232-13.616-40.848l54.464-176.992c0-6.8 6.8-13.616 13.616-20.416L770.08 498.176c20.416-13.616 47.648-13.616 61.264 0l129.328 129.328c6.8 6.8 13.616 20.416 13.616 34.032s-6.8 20.416-13.616 34.032l-211.04 204.24c-6.8 6.8-13.616 6.8-20.416 13.616l-176.992 47.648c-6.8-6.816-6.8-6.816-13.6-6.816z m88.48-197.408l-27.232 95.296 95.296-27.232 170.176-163.376-68.064-68.064-170.176 163.376z m20.432-367.584H252.72c-27.232 0-40.848-20.416-40.848-40.848s20.416-40.848 40.848-40.848h394.816c27.232 0 47.648 20.416 47.648 40.848s-20.416 40.848-47.648 40.848zM477.36 593.488h-224.64c-20.416 0-40.848-13.616-40.848-40.848s20.416-40.848 40.848-40.848h224.64c27.232 0 40.848 20.416 40.848 40.848s-13.632 40.848-40.848 40.848z" p-id="6199"></path></svg>