<?xml version="1.0" standalone="no"?><!DOCTYPE svg PUBLIC "-//W3C//DTD SVG 1.1//EN" "http://www.w3.org/Graphics/SVG/1.1/DTD/svg11.dtd"><svg t="1545186734707" class="icon" style="" viewBox="0 0 1024 1024" version="1.1" xmlns="http://www.w3.org/2000/svg" p-id="6509" xmlns:xlink="http://www.w3.org/1999/xlink" width="16" height="16"><defs><style type="text/css"></style></defs><path d="M872 451.2c0 33.6-27.2 60.8-60.8 60.8h-120c-33.6 0-60.8-27.2-60.8-60.8v-123.2c0-33.6 27.2-60.8 60.8-60.8h120c33.6 0 60.8 27.2 60.8 60.8v123.2zM542.4 635.2H182.4c-16 0-30.4-14.4-30.4-30.4s12.8-30.4 30.4-30.4h360c16 0 30.4 14.4 30.4 30.4s-14.4 30.4-30.4 30.4z m0 121.6H182.4c-16 0-30.4-14.4-30.4-30.4s12.8-30.4 30.4-30.4h360c16 0 30.4 14.4 30.4 30.4s-14.4 30.4-30.4 30.4zM872 144h-720C86.4 144 32 198.4 32 267.2v491.2C32 825.6 86.4 880 152 880h720c65.6 0 120-54.4 120-123.2V267.2C992 198.4 937.6 144 872 144z m-89.6 184h-60.8c-16 0-30.4 14.4-30.4 30.4v60.8c0 17.6 12.8 30.4 30.4 30.4h60.8c16 0 30.4-14.4 30.4-30.4v-60.8c-1.6-16-14.4-30.4-30.4-30.4z" fill="#8a8a8a" p-id="6510"></path></svg>